<?xml version="1.0" encoding="UTF-8"?>
<svg width="574px" height="124px" viewBox="0 0 574 124" version="1.1" xmlns="http://www.w3.org/2000/svg" xmlns:xlink="http://www.w3.org/1999/xlink">
    <!-- Generator: Sketch 61.2 (89653) - https://sketch.com -->
    <title>Logo original</title>
    <desc>Created with Sketch.</desc>
    <g id="Logo" stroke="none" stroke-width="1" fill="none" fill-rule="evenodd">
        <g id="Logo-on-white" transform="translate(-20.000000, -20.000000)">
            <g id="Logo-original" transform="translate(20.000000, 20.000000)">
                <path d="M164,3 L243.07024,3 L243.07024,27 L189.968331,27 L189.968331,51 L239.075112,51 L239.075112,75 L189.968331,75 L189.968331,121 L164,121 L164,3 Z M291.344702,3 L312.818514,3 L364.089322,121 L334.791717,121 L324.637434,96 L278.859927,96 L269.038571,121 L240.406821,121 L291.344702,3 Z M301.332521,37.3333333 L287.016646,74 L315.81486,74 L301.332521,37.3333333 Z M452.980918,33.6666667 C450.428462,30.55554 447.293428,28.166675 443.575721,26.5 C439.858014,24.833325 435.557745,24 430.674787,24 C425.791828,24 421.269611,24.944435 417.107998,26.8333333 C412.946386,28.7222317 409.339709,31.3610942 406.28786,34.75 C403.236011,38.1389058 400.850056,42.1666433 399.129923,46.8333333 C397.40979,51.5000233 396.549736,56.5555283 396.549736,62 C396.549736,67.5555833 397.40979,72.6388658 399.129923,77.25 C400.850056,81.8611342 403.208268,85.8610942 406.204629,89.25 C409.200989,92.6389058 412.724435,95.2777683 416.775071,97.1666667 C420.825707,99.055565 425.181463,100 429.842469,100 C435.169332,100 439.885756,98.8889 443.99188,96.6666667 C448.098004,94.4444333 451.482731,91.3333533 454.146163,87.3333333 L475.786439,103.5 C470.792504,110.500035 464.466949,115.66665 456.809582,119 C449.152215,122.33335 441.273014,124 433.171742,124 C423.960706,124 415.471145,122.55557 407.702801,119.666667 C399.934458,116.777763 393.220491,112.638916 387.560698,107.25 C381.900906,101.861084 377.489663,95.3333717 374.326837,87.6666667 C371.164012,79.9999617 369.582623,71.4444917 369.582623,62 C369.582623,52.5555083 371.164012,44.0000383 374.326837,36.3333333 C377.489663,28.6666283 381.900906,22.1389158 387.560698,16.75 C393.220491,11.3610842 399.934458,7.22223667 407.702801,4.33333333 C415.471145,1.44443 423.960706,0 433.171742,0 C436.501032,0 439.96899,0.3055525 443.575721,0.916666667 C447.182451,1.52778083 450.733641,2.5 454.229395,3.83333333 C457.725149,5.16667333 461.082133,6.94443333 464.300447,9.16666667 C467.51876,11.3889 470.404101,14.111095 472.956557,17.3333333 L452.980918,33.6666667 Z M490.934633,3 L571.003654,3 L571.003654,27 L516.902964,27 L516.902964,49 L568.007308,49 L568.007308,73 L516.902964,73 L516.902964,97 L574,97 L574,121 L490.934633,121 L490.934633,3 Z" id="FACE" fill="#000000"></path>
                <g id="Group-2" fill="#F05136" fill-rule="nonzero">
                    <path d="M52,52 L26,52 L26,78 L0,78 L0,0 L78,0 L78,26 L52,26 L52,52 Z" id="Combined-Shape"></path>
                    <path d="M124,124 L20,124 L20,98 L46,98 L46,72 L71.999,71.999 L72,46 L98,46 L98,20 L124,20 L124,124 Z" id="Combined-Shape"></path>
                </g>
            </g>
        </g>
    </g>
</svg>